<svg width="64" height="64" viewBox="0 0 64 64" fill="none" xmlns="http://www.w3.org/2000/svg">
  <style>
    /* Single-ink mark that follows the browser/OS scheme — near-black on light
       tab chrome, near-white on dark — mirroring the in-app logo (text-ink). */
    svg { color: #14181f; }
    @media (prefers-color-scheme: dark) { svg { color: #f2ebe5; } }
  </style>
  <g transform="translate(5.12 5.12) scale(0.84)" fill="none" stroke="currentColor">
    <path d="M24 43 A21 21 0 1 1 36 43" stroke-width="4.5" stroke-linecap="round"/>
    <g stroke-width="3" stroke-linecap="round">
      <path d="M25 49 H35"/>
      <path d="M26.5 53.5 H33.5"/>
    </g>
    <path d="M28.5 58 q3.5 3 7 0" stroke-width="3" stroke-linecap="round"/>
    <rect x="19.5" y="31" width="5" height="10" rx="2" fill="currentColor" stroke="none"/>
    <rect x="26.5" y="27" width="5" height="14" rx="2" fill="currentColor" stroke="none"/>
    <rect x="33.5" y="23" width="5" height="18" rx="2" fill="currentColor" stroke="none"/>
    <path d="M15 38 L23 31 L29 35 L45 13" stroke-width="4" stroke-linecap="round" stroke-linejoin="round"/>
    <path d="M37 12.5 L46.5 11 L45 20.5" stroke-width="4" stroke-linecap="round" stroke-linejoin="round"/>
    <path d="M50 7 l1.5 3.2 3.2 1.5 -3.2 1.5 -1.5 3.2 -1.5 -3.2 -3.2 -1.5 3.2 -1.5z" fill="currentColor" stroke="none"/>
    <rect x="53.5" y="20" width="3.4" height="3.4" rx=".8" transform="rotate(20 55.2 21.7)" fill="currentColor" stroke="none"/>
    <rect x="44.5" y="3.5" width="2.8" height="2.8" rx=".7" transform="rotate(18 45.9 4.9)" fill="currentColor" stroke="none"/>
  </g>
</svg>
